<svg id="Layer_1" data-name="Layer 1" xmlns="http://www.w3.org/2000/svg" viewBox="0 0 192 192" fill="#000"><line x1="28.17" y1="167.15" x2="163.83" y2="167.15" style="fill:none;stroke:#000;stroke-linecap:round;stroke-linejoin:round;stroke-width:7.00px" fill="#000"></line><line x1="152.37" y1="70.01" x2="152.37" y2="167.12" style="fill:none;stroke:#000;stroke-linecap:round;stroke-linejoin:round;stroke-width:7.00px" fill="#000"></line><line x1="39.63" y1="167.05" x2="39.63" y2="70.01" style="fill:none;stroke:#000;stroke-linecap:round;stroke-linejoin:round;stroke-width:7.00px" fill="#000"></line><path d="M76,167.05V115a10,10,0,0,1,10-10h20a10,10,0,0,1,10,10v52" style="fill:none;stroke:#000;stroke-linecap:round;stroke-linejoin:round;stroke-width:7.00px" fill="#000"></path><path d="M43.74,65.5V22.6a10,10,0,0,1,10-10H57.5a10,10,0,0,1,10,10V44" style="fill:none;stroke:#000;stroke-linecap:round;stroke-linejoin:round;stroke-width:7.00px" fill="#000"></path><path d="M29.49,78.7l60-51.43a10,10,0,0,1,13,0l60,51.43" style="fill:none;stroke:#000;stroke-linecap:round;stroke-linejoin:round;stroke-width:7.00px" fill="#000"></path></svg>