<svg id="Layer_1" data-name="Layer 1" xmlns="http://www.w3.org/2000/svg" viewBox="0 0 192 192" fill="#000"><circle cx="96" cy="96" r="23.85" style="fill:none;stroke:#000;stroke-linecap:round;stroke-linejoin:round;stroke-width:7.00px" fill="#000"></circle><path d="M78.88,38.12a60.19,60.19,0,0,0-24.47,14.1L40,43.9a10,10,0,0,0-13.66,3.66L19.22,59.89a10,10,0,0,0,3.66,13.66l14.41,8.32a56.66,56.66,0,0,0,0,28.24l-14.43,8.34a10,10,0,0,0-3.66,13.66l7.12,12.33A10,10,0,0,0,40,148.1l14.43-8.33a60.8,60.8,0,0,0,11.36,8.55,59.05,59.05,0,0,0,13.09,5.56v16.67a10,10,0,0,0,10,10h14.24a10,10,0,0,0,10-10V153.88a60.19,60.19,0,0,0,24.47-14.1L152,148.1a10,10,0,0,0,13.66-3.66l7.12-12.33a10,10,0,0,0-3.66-13.66l-14.4-8.32a60.43,60.43,0,0,0,0-28.24l14.43-8.34a10,10,0,0,0,3.66-13.66l-7.12-12.33A10,10,0,0,0,152,43.9l-14.43,8.33a58.54,58.54,0,0,0-24.45-14.11V21.45a10,10,0,0,0-10-10H88.88a10,10,0,0,0-10,10V38.12Z" style="fill:none;stroke:#000;stroke-linecap:round;stroke-linejoin:round;stroke-width:7.00px" fill="#000"></path></svg>