<svg id="Layer_2" data-name="Layer 2" xmlns="http://www.w3.org/2000/svg" viewBox="0 0 192 192" fill="#000"><line x1="57.24" y1="101.11" x2="57.24" y2="73.65" style="fill:none;stroke:#000;stroke-linecap:round;stroke-linejoin:round;stroke-width:7.00px" fill="#000"></line><line x1="94.31" y1="73.56" x2="94.31" y2="101.11" style="fill:none;stroke:#000;stroke-linecap:round;stroke-linejoin:round;stroke-width:7.00px" fill="#000"></line><line x1="127.71" y1="141" x2="64.54" y2="141" style="fill:none;stroke:#000;stroke-linecap:round;stroke-linejoin:round;stroke-width:7.00px" fill="#000"></line><path d="M30.6,141h-.68a10,10,0,0,1-10-10V103.34a10.2,10.2,0,0,1,.52-3.19l6.92-20.58a10,10,0,0,1,9.48-6.82h79.89a10,10,0,0,1,7.92,3.89L144,101.7h24.94a10,10,0,0,1,10,10V131a10,10,0,0,1-10,10h-7.27" style="fill:none;stroke:#000;stroke-linecap:round;stroke-linejoin:round;stroke-width:7.00px" fill="#000"></path><line x1="20.64" y1="101.72" x2="153.31" y2="101.72" style="fill:none;stroke:#000;stroke-linecap:round;stroke-linejoin:round;stroke-width:7.00px" fill="#000"></line><circle cx="47.57" cy="139.7" r="17.02" style="fill:none;stroke:#000;stroke-linecap:round;stroke-linejoin:round;stroke-width:7.00px" fill="#000"></circle><circle cx="144.68" cy="139.7" r="17.02" style="fill:none;stroke:#000;stroke-linecap:round;stroke-linejoin:round;stroke-width:7.00px" fill="#000"></circle></svg>