<svg id="Layer_4" data-name="Layer 4" xmlns="http://www.w3.org/2000/svg" viewBox="0 0 192 192" fill="#000"><path d="M83.37,83.59C85.25,79.84,93.59,63.09,96.25,57a5.46,5.46,0,0,1,5-3.28h0a5.45,5.45,0,0,1,5.45,5.45l-3.63,25.33h24.86a5.53,5.53,0,0,1,0,11.06h0a5.53,5.53,0,0,1,0,11h0a5.53,5.53,0,0,1,0,11.06,5.53,5.53,0,0,1,0,11H83l.35,0H63.78a5.18,5.18,0,0,1-5.18-5.19V88.77a5.18,5.18,0,0,1,5.18-5.18H83.36" style="fill:none;stroke:#000;stroke-linecap:round;stroke-linejoin:round;stroke-width:7.00px" fill="#000"></path><path d="M145.93,28a84.25,84.25,0,0,1,34.42,69.17c-.62,45.26-37.46,82.32-82.72,83.17a84.36,84.36,0,0,1-86-85.94c.85-45.64,38.49-82.65,84.13-82.75a83.87,83.87,0,0,1,30.13,5.46h0a80.06,80.06,0,0,1,19.62,10.6Z" style="fill:none;stroke:#000;stroke-linecap:round;stroke-linejoin:round;stroke-width:7.00px" fill="#000"></path></svg>